<svg version="1.1" viewBox="0.0 0.0 1024.0 1024.0" fill="none" stroke="none" stroke-linecap="square" stroke-miterlimit="10" xmlns:xlink="http://www.w3.org/1999/xlink" xmlns="http://www.w3.org/2000/svg"><clipPath id="p.0"><path d="m0 0l1024.0 0l0 1024.0l-1024.0 0l0 -1024.0z" clip-rule="nonzero"/></clipPath><g clip-path="url(#p.0)"><path fill="#000000" fill-opacity="0.0" d="m0 0l1024.0 0l0 1024.0l-1024.0 0z" fill-rule="evenodd"/><path fill="#434343" d="m0 99.19488l0 0c0 -54.783817 44.41106 -99.19488 99.19488 -99.19488l825.6102 0c26.308105 0 51.538757 10.450859 70.14136 29.053507c18.602661 18.602648 29.053528 43.83326 29.053528 70.14137l0 825.6102c0 54.783813 -44.41107 99.194885 -99.194885 99.194885l-825.6102 0c-54.783817 0 -99.19488 -44.41107 -99.19488 -99.194885z" fill-rule="evenodd"/><path fill="#ffffff" d="m410.80316 512.0l101.19684 -101.19684l101.19684 101.19684l-101.19684 101.19684z" fill-rule="evenodd"/><path fill="#ffffff" d="m690.82416 512.0l101.19684 -101.19684l101.19684 101.19684l-101.19684 101.19684z" fill-rule="evenodd"/><path fill="#ffffff" d="m512.0 333.17584l-101.19684 -101.19684l101.19684 -101.19685l101.19684 101.19685z" fill-rule="evenodd"/><path fill="#ffffff" d="m512.0 893.21783l-101.19684 -101.19684l101.19684 -101.19684l101.19684 101.19684z" fill-rule="evenodd"/><path fill="#ffffff" d="m130.78215 512.0l101.19685 -101.19684l101.19684 101.19684l-101.19684 101.19684z" fill-rule="evenodd"/><path fill="#ffffff" d="m130.78215 231.979l101.19685 -101.19685l101.19684 101.19685l-101.19684 101.19684z" fill-rule="evenodd"/><path fill="#ffffff" d="m690.82416 231.979l101.19684 -101.19685l101.19684 101.19685l-101.19684 101.19684z" fill-rule="evenodd"/><path fill="#ffffff" d="m690.82416 792.021l101.19684 -101.19684l101.19684 101.19684l-101.19684 101.19684z" fill-rule="evenodd"/><path fill="#ffffff" d="m130.78215 792.021l101.19685 -101.19684l101.19684 101.19684l-101.19684 101.19684z" fill-rule="evenodd"/></g></svg>
